<?xml version="1.0" encoding="utf-8"?>
<!-- Generator: Adobe Illustrator 17.1.0, SVG Export Plug-In . SVG Version: 6.00 Build 0)  -->
<!DOCTYPE svg PUBLIC "-//W3C//DTD SVG 1.1//EN" "http://www.w3.org/Graphics/SVG/1.1/DTD/svg11.dtd">
<svg version="1.1" id="Layer_1" xmlns="http://www.w3.org/2000/svg" xmlns:xlink="http://www.w3.org/1999/xlink" x="0px" y="0px"
	 viewBox="0 0 250 250" style="enable-background:new 0 0 250 250;" xml:space="preserve">
<style type="text/css">
	.st1{fill:#0573c5;}
</style>
<g>
	<path class="st1" d="M125,108.9c8.8,0,16,7.2,16,16c0,8.9-7.2,16-16,16c-8.9,0-16-7.2-16-16C108.9,116.1,116.1,108.9,125,108.9"/>
	<path class="st1" d="M107.3,158.4c-10.9,10.9-26.9,26.9-26.9,26.9s-19.4-11.8-8-23.2c6.2-6.2,13.7-13.7,19.2-19.2
		C101.2,133.3,117,148.6,107.3,158.4"/>
	<path class="st1" d="M142.7,91.6c10.9-10.9,26.9-26.9,26.9-26.9s19.4,11.8,8,23.2c-6.2,6.2-13.7,13.7-19.2,19.2
		C148.8,116.7,132.9,101.3,142.7,91.6"/>
	<path class="st1" d="M91.6,107.3C80.7,96.5,64.7,80.4,64.7,80.4s11.8-19.5,23.2-8c6.2,6.2,13.7,13.7,19.2,19.2
		C116.7,101.2,101.3,117,91.6,107.3"/>
	<path class="st1" d="M158.4,142.7c10.9,10.9,26.9,26.9,26.9,26.9s-11.8,19.4-23.2,8c-6.2-6.2-13.7-13.7-19.2-19.2
		C133.3,148.8,148.6,132.9,158.4,142.7"/>
	<path class="st1" d="M161,114h38.1c0,0,5.4,22.1-10.7,22.1h-27.2C147.6,136,147.3,114,161,114"/>
	<path class="st1" d="M88.9,136H50.9c0,0-5.4-22.1,10.7-22.1h27.2C102.4,114,102.7,136,88.9,136"/>
	<path class="st1" d="M136,161v38.1c0,0-22.1,5.4-22.1-10.7c0-8.8,0-19.3,0-27.2C113.9,147.6,136,147.3,136,161"/>
	<path class="st1" d="M113.9,88.9c0-15.4,0-38.1,0-38.1S136,45.5,136,61.6v27.2C136,102.4,113.9,102.7,113.9,88.9"/>
</g>
</svg>
