<?xml version="1.0" encoding="utf-8"?>
<!-- Generator: Adobe Illustrator 21.1.0, SVG Export Plug-In . SVG Version: 6.00 Build 0)  -->
<svg version="1.1" id="Layer_1" xmlns="http://www.w3.org/2000/svg" xmlns:xlink="http://www.w3.org/1999/xlink" x="0px" y="0px"
	 viewBox="0 0 129.8 129.8" style="enable-background:new 0 0 129.8 129.8;" xml:space="preserve">
<style type="text/css">
	.st0{fill-rule:evenodd;clip-rule:evenodd;fill:#0573C5;}
	.st1{fill:#0573C5;}
</style>
<path class="st0" d="M2,2c0,42,0,83.8,0,125.8c1,0.1,1,0.2,1.4,0.2c36.3,0,72.7,0,108.9,0c5,0,9.9,0,14.9,0c0.3,0,0.9-0.2,0.9-0.2
	c0-42,0-83.8,0-125.8C86,2,44,2,2,2z M116,64.9c0,16.2,0,32.4,0,48.6c0,1.7-0.3,1.5-1.9,1.5c-32.4,0-64.9,0-97.3,0
	c-1.6,0-1.8,0.2-1.8-1.5c0-32.4,0-64.8,0-97.2c0-1.7,0.1-2.2,1.9-2.2c32.4,0,64.7,0,97.1,0c1.8,0,2,0.6,2,2.4
	C116,32.5,116,48.7,116,64.9z"/>
<path class="st1" d="M90.9,59.6c-0.7-0.3-1.6-0.5-2.7-0.5c-5.9,0-9.9,4.6-9.9,12.1c0,8.6,4,12.1,9.3,12.1c1.1,0,2.3-0.1,3.2-0.5
	L90.9,59.6L90.9,59.6z M69.9,71.6c0-10.9,7-19.5,18.6-19.5c1,0,1.5,0,2.4,0.1V40c0-0.3,0.2-0.5,0.5-0.5h7.6c0.4,0,0.5,0.1,0.5,0.4
	v42.9c0,1.3,0,2.9,0.2,4.6c0,0.3,0,0.4-0.3,0.5c-3.9,1.9-8.1,2.7-12,2.7C77.1,90.7,69.9,84.4,69.9,71.6z M53.9,64L67,89.5
	c0.2,0.4,0.1,0.8-0.3,0.8h-8.2c-0.5,0-0.8-0.1-1-0.6c-3-6.2-6.1-12.6-9.2-19.3h-0.1c-2.8,6.3-5.9,13.1-8.9,19.3
	c-0.2,0.4-0.5,0.5-0.8,0.5h-7.8c-0.5,0-0.5-0.4-0.3-0.7l12.9-24.7L30.9,40.2c-0.3-0.4,0-0.7,0.3-0.7h8.1c0.5,0,0.7,0.1,0.8,0.5
	c3,6.2,6,12.4,8.8,18.7H49c2.7-6.2,5.7-12.4,8.6-18.6c0.2-0.4,0.4-0.6,0.8-0.6H66c0.4,0,0.5,0.3,0.3,0.7L53.9,64z"/>
</svg>
