<?xml version="1.0" encoding="utf-8"?>
<!-- Generator: Adobe Illustrator 21.1.0, SVG Export Plug-In . SVG Version: 6.00 Build 0)  -->
<svg version="1.1" id="Layer_1" xmlns="http://www.w3.org/2000/svg" xmlns:xlink="http://www.w3.org/1999/xlink" x="0px" y="0px"
	 viewBox="0 0 129.8 129.8" style="enable-background:new 0 0 129.8 129.8;" xml:space="preserve">
<style type="text/css">
	.st0{fill-rule:evenodd;clip-rule:evenodd;fill:#61CBFF;}
	.st1{fill:#61CBFF;}
</style>
<path class="st0" d="M2,2c0,42,0,83.8,0,125.8c1,0.1,1,0.2,1.4,0.2c36.3,0,72.7,0,108.9,0c5,0,9.9,0,14.9,0c0.3,0,0.9-0.2,0.9-0.2
	c0-42,0-83.8,0-125.8C86,2,44,2,2,2z M116,64.9c0,16.2,0,32.4,0,48.6c0,1.7-0.3,1.5-1.9,1.5c-32.4,0-64.9,0-97.3,0
	c-1.6,0-1.8,0.2-1.8-1.5c0-32.4,0-64.8,0-97.2c0-1.7,0.1-2.2,1.9-2.2c32.4,0,64.7,0,97.1,0c1.8,0,2,0.6,2,2.4
	C116,32.5,116,48.7,116,64.9z"/>
<g>
	<path class="st1" d="M88.4,86.4c-0.1-0.7-0.1-2.3-0.1-4.7s0-40.3,0-40.9s-0.2-0.9-0.9-0.9s-8.1,0-8.6,0c-0.7,0-0.8,0.4-0.8,1
		c0,0.5,0,6.3,0,10.4c-4.8-2.3-21.8,1.7-21.8,19.6s12.6,19.6,19,19.6S87,88,87.7,87.7C88.4,87.4,88.4,87.1,88.4,86.4z M78.2,82
		c0,0-1.3,0.7-3,0.7s-8.9-0.4-8.9-11.8S73,57,78.2,59.2V82z"/>
	<path class="st1" d="M49.4,89.9h-5.6c-1.3,0-2.3-1-2.3-2.3V42c0-1.3,1-2.3,2.3-2.3h5.6c1.3,0,2.3,1,2.3,2.3v45.5
		C51.7,88.8,50.7,89.9,49.4,89.9z"/>
</g>
</svg>
