<?xml version="1.0" encoding="utf-8"?>
<!-- Generator: Adobe Illustrator 21.1.0, SVG Export Plug-In . SVG Version: 6.00 Build 0)  -->
<svg version="1.1" id="Layer_1" xmlns="http://www.w3.org/2000/svg" xmlns:xlink="http://www.w3.org/1999/xlink" x="0px" y="0px"
	 viewBox="0 0 129.8 129.8" style="enable-background:new 0 0 129.8 129.8;" xml:space="preserve">
<style type="text/css">
	.st0{fill-rule:evenodd;clip-rule:evenodd;fill:#0573C5;}
</style>
<path class="st0" d="M2,2c0,42,0,83.8,0,125.8c1,0.1,1,0.2,1.4,0.2c36.3,0,72.7,0,108.9,0c5,0,9.9,0,14.9,0c0.3,0,0.9-0.2,0.9-0.2
	c0-42,0-83.8,0-125.8C86,2,44,2,2,2z M116,64.9c0,16.2,0,32.4,0,48.6c0,1.7-0.3,1.5-1.9,1.5c-32.4,0-64.9,0-97.3,0
	c-1.6,0-1.8,0.2-1.8-1.5c0-32.4,0-64.8,0-97.2c0-1.7,0.1-2.2,1.9-2.2c32.4,0,64.7,0,97.1,0c1.8,0,2,0.6,2,2.4
	C116,32.5,116,48.7,116,64.9z"/>
<g id="line">
	<path class="st0" d="M64.9,41.6c-0.2-0.7-0.6-0.7-1.2-0.7c-3.1,0-6.2,0.1-9.3,0c-1,0-1.4,0.3-1.7,1.2c-4.4,13.8-8.8,27.6-13.2,41.3
		c-0.7,2.2-1.4,4.5-2.2,6.9c2.9,0,5.6,0,8.2,0c0.9,0,1.3-0.3,1.5-1.1c1.1-3.9,2.4-7.8,3.5-11.7c0.3-0.9,0.7-1.2,1.6-1.2
		c4.4,0.1,8.9,0.1,13.3,0c0.9,0,1.2,0.3,1.5,1.1c1.2,3.9,2.5,7.9,3.7,11.8c0.3,0.8,0.6,1.1,1.5,1.1c1.3-0.1,2.6-0.1,3.9-0.1
		c1.5,0,3.1,0,4.6,0c0,0,0-0.3,0-0.3C75.3,73.8,70.1,57.7,64.9,41.6z M52.5,69.2c2-7,4.1-13.8,6.1-20.6c2.1,6.8,4.1,13.6,6.3,20.6
		C60.6,69.2,56.6,69.2,52.5,69.2z"/>
	<path class="st0" d="M82.5,90.2c3,0,7,0,10,0c0-12,0-24,0-36c-3,0-7,0-10,0C82.5,66.2,82.5,78.2,82.5,90.2z"/>
	<path class="st0" d="M87.6,39.8c-3,0-5.2,2.1-5.1,4.9c0,2.8,2.1,4.9,5.1,4.9c3.1,0,5.2-2,5.2-4.9C92.7,41.8,90.5,39.7,87.6,39.8z"
		/>
</g>
</svg>
