<?xml version="1.0" encoding="utf-8"?>
<!-- Generator: Adobe Illustrator 21.1.0, SVG Export Plug-In . SVG Version: 6.00 Build 0)  -->
<svg version="1.1" id="Layer_1" xmlns="http://www.w3.org/2000/svg" xmlns:xlink="http://www.w3.org/1999/xlink" x="0px" y="0px"
	 viewBox="0 0 288 288" style="enable-background:new 0 0 288 288;" xml:space="preserve">
<style type="text/css">
	.st0{fill:#5CB246;}
	.st1{fill:#4E9C3D;}
	.st2{fill:#FFFFFF;}
	.st3{fill:#BFBFBF;}
</style>
<g>
	<circle class="st0" cx="143.6" cy="144.5" r="132.1"/>
	<path class="st1" d="M37.1,144.5c0-48.8,21.7-92.5,55.9-122c-47.8,19.9-81.5,67-81.5,122s33.6,102.2,81.5,122
		C58.8,237,37.1,193.3,37.1,144.5z"/>
	<g>
		<path class="st2" d="M129.5,135.2c-1.9,3.2-3.7,6.2-5.5,9.2c-4.4,7.7-8.4,15.5-10.8,24.1c-4.2,15.1-1.6,28.7,8.7,40.6
			c6.3,7.3,14.4,11.2,24.1,11.3c16.6,0.1,28.8-10.8,31-25.5c0.8-5.4,0-10.6-1.4-15.8c-3.9-14.6-10.5-27.9-19.1-40.2
			c-0.2-0.3-0.5-0.6-0.7-1c0-0.1,0-0.2,0-0.5c2,0,3.9,0.1,5.8,0c3.4-0.1,6.7-0.4,10.1-0.5c0.5,0,1.2,0.1,1.5,0.4
			c11.1,11.3,20.8,23.8,27.7,38.2c3.5,7.4,5.3,15.3,4.8,23.5c-0.6,10.9-4.4,20.8-11.1,29.4c-10.7,13.7-24.9,21.5-42.2,23.3
			c-12.9,1.3-24.9-1.8-36-8.1c-14-7.9-24.6-19.1-30.9-34.1c-2.6-6.3-4-12.9-3.9-19.7c0.1-9.7,2.6-18.8,6.7-27.4
			c5.9-12.4,14.3-22.7,25.1-31.3c0.8-0.7,1.5-0.7,2.4-0.3c4.3,1.5,8.6,2.8,13,4.1C128.9,135,129.1,135.1,129.5,135.2z"/>
		<path class="st2" d="M155.9,133.6c-10.6-0.2-21.2-0.7-31.4-3.9c-8.2-2.5-5.9-0.7-9.2-8.3c-1.4-3.1-1.8-6.4-1-9.7
			c0-0.1,0.1-0.3,0.1-0.4c0.7-2.1,0.8-2.2,2.9-1.6c7.9,2.4,15.9,3.5,24.1,4c9.6,0.6,19.2,0.2,28.8-0.6c0.9-0.1,1.4,0.2,1.8,0.9
			c3,5.8,3.4,11.6,0.4,17.6c-0.5,0.9-1.1,1.3-2.2,1.3C165.5,133.2,160.7,133.4,155.9,133.6z"/>
		<path class="st2" d="M154.8,90.1c-12.8-0.1-23.2-0.8-33.3-3.7c-1.8-0.5-3.6-1.3-5.5-1.8c-1.7-0.5-2.6-1.5-3.3-3.1
			c-1.3-3.2-2.3-6.5-1.6-10.1c0.2-0.8,0.4-1.7,0.8-2.5c1.1-2.3,1.7-2.5,4.1-1.7c7.3,2.4,14.8,3.5,22.4,4.1
			c9.3,0.7,18.6,0.5,27.9-0.2c1-0.1,1.6,0.2,2.1,1c2.1,2.8,2.9,6,2.9,9.4c0,2.3-0.5,4.6-0.9,6.8c-0.1,0.4-0.8,0.9-1.2,1
			C163.6,89.7,158.1,90,154.8,90.1z"/>
		<path class="st2" d="M153.8,110.3c-10,0-20-0.5-29.9-2.8c-2.4-0.5-4.7-1.3-7.1-2c-0.4-0.1-0.9-0.4-1.2-0.8c-2.4-4-3.9-8.2-3.1-13
			c0.1-0.3,0.1-0.6,0.2-0.9c0.8-2.6,1.1-2.7,3.6-1.9c7.7,2.6,15.7,3.9,23.8,4.5c9.5,0.7,19,0.5,28.6-0.3c1.2-0.1,1.9,0.2,2.3,1.3
			c1.9,4.3,2.4,8.7,1.2,13.3c-0.3,1-0.8,1.3-1.7,1.4C165,109.6,159.4,109.9,153.8,110.3z"/>
		<path class="st2" d="M157.8,67.9c-4.1,0-7.9,0.2-11.6,0c-6-0.4-12-1-18-1.6c-2.2-0.2-2.3-0.3-2.2-2.6c0.2-5.2,0.4-10.3,0.8-15.4
			c0.3-3.3,0.9-6.5,1.4-9.7c0.1-0.5,0.2-0.9,0.4-1.5c1.7,0.9,3.4,1.7,5,2.5c6.7,3.2,13.8,5.3,21.1,6.4c0.6,0.1,1.1,0.1,1.1,0.9
			C156.5,53.8,157.1,60.7,157.8,67.9z"/>
	</g>
	<g>
		<path class="st3" d="M170.6,93.8c-0.4-0.5-1-0.6-1.8-0.6c-3.6,0.3-7.2,0.5-10.8,0.6C162.2,94,166.4,94,170.6,93.8z"/>
		<path class="st3" d="M134.9,107.5c-2.4-0.5-4.7-1.3-7.1-2c-0.4-0.1-0.9-0.4-1.2-0.8c-2.4-4-3.9-8.2-3.1-13c0-0.2,0.1-0.5,0.2-0.7
			c-2.5-0.6-4.9-1.3-7.3-2.1c-2.5-0.9-2.8-0.7-3.6,1.9c-0.1,0.3-0.2,0.6-0.2,0.9c-0.8,4.8,0.6,9,3.1,13c0.2,0.4,0.7,0.6,1.2,0.8
			c2.3,0.7,4.7,1.4,7.1,2c9.8,2.2,19.8,2.8,29.9,2.8c0.9-0.1,1.8-0.1,2.7-0.2C149.3,109.8,142.1,109.1,134.9,107.5z"/>
	</g>
	<g>
		<path class="st3" d="M156.5,138.8c8.6,12.3,15.2,25.6,19.1,40.2c1.4,5.2,2.2,10.4,1.4,15.8c-2,13-11.7,23-25.3,25.1
			c1.7,0.3,3.4,0.4,5.2,0.4c16.6,0.1,28.8-10.8,31-25.5c0.8-5.4,0-10.6-1.4-15.8c-3.9-14.6-10.5-27.9-19.1-40.2
			c-0.2-0.3-0.5-0.6-0.7-1c0-0.1,0-0.2,0-0.5c2,0,3.9,0.1,5.8,0c0.2,0,0.4,0,0.7,0c0,0,0,0,0,0c-0.3-0.3-1-0.5-1.5-0.4
			c-3.4,0.1-6.7,0.4-10.1,0.5c-1.9,0.1-3.9,0-5.8,0c0,0.4,0,0.5,0,0.5C156,138.2,156.3,138.5,156.5,138.8z"/>
		<path class="st3" d="M127.3,243.6c-14-7.9-24.6-19.1-30.9-34.1c-2.6-6.3-4-12.9-3.9-19.7c0.1-9.7,2.6-18.8,6.7-27.4
			c5.5-11.5,13.3-21.3,23-29.5c-2.1-0.7-4.3-1.4-6.4-2.1c-1-0.3-1.6-0.3-2.4,0.3c-10.7,8.5-19.2,18.9-25.1,31.3
			c-4.1,8.7-6.7,17.8-6.7,27.4c0,6.8,1.3,13.4,3.9,19.7c6.3,15,16.9,26.1,30.9,34.1c11,6.3,22.9,9.3,35.6,8.1
			C143.4,250.8,135.1,248,127.3,243.6z"/>
	</g>
	<g>
		<path class="st3" d="M135.5,129.8c-8.2-2.5-5.9-0.7-9.2-8.3c-1.4-3.1-1.8-6.3-1.1-9.7c-2.7-0.5-5.3-1.2-8-2
			c-2.1-0.6-2.2-0.6-2.9,1.6c0,0.1-0.1,0.3-0.1,0.4c-0.8,3.4-0.3,6.6,1,9.7c3.3,7.6,1,5.8,9.2,8.3c10.2,3.1,20.8,3.7,31.4,3.9
			c1.4-0.1,2.7-0.1,4.1-0.2C151.7,133.1,143.5,132.2,135.5,129.8z"/>
		<path class="st3" d="M171.8,113.8c-0.4-0.5-0.8-0.7-1.6-0.6c-4.6,0.4-9.2,0.7-13.8,0.8C161.6,114.1,166.7,114,171.8,113.8z"/>
	</g>
	<g>
		<path class="st3" d="M132.4,86.5c-1.8-0.5-3.6-1.3-5.5-1.8c-1.7-0.5-2.6-1.5-3.3-3.1c-1.3-3.2-2.3-6.5-1.6-10.1
			c0.2-0.8,0.4-1.6,0.7-2.3c-2.3-0.5-4.6-1.1-6.8-1.9c-2.4-0.8-3-0.6-4.1,1.7c-0.4,0.8-0.6,1.6-0.8,2.5c-0.7,3.5,0.3,6.8,1.6,10.1
			c0.6,1.6,1.6,2.6,3.3,3.1c1.8,0.5,3.6,1.3,5.5,1.8c10.1,2.9,20.6,3.5,33.3,3.7c0.9,0,2.1-0.1,3.3-0.2
			C148.7,89.6,140.5,88.8,132.4,86.5z"/>
		<path class="st3" d="M168,71.8c-0.5-0.4-1-0.6-1.7-0.5c-3.4,0.3-6.8,0.5-10.2,0.6C160.1,71.9,164.1,71.9,168,71.8z"/>
	</g>
	<path class="st3" d="M157.1,67.9c-6-0.4-12-1-18-1.6c-2.2-0.2-2.3-0.3-2.2-2.6c0.2-5.2,0.4-10.3,0.8-15.4c0.2-2.2,0.5-4.3,0.9-6.5
		c-1.7-0.7-3.4-1.4-5-2.2c-1.6-0.8-3.3-1.6-5-2.5c-0.2,0.6-0.3,1-0.4,1.5c-0.5,3.2-1.2,6.5-1.4,9.7c-0.4,5.1-0.6,10.3-0.8,15.4
		c-0.1,2.2,0,2.3,2.2,2.6c6,0.6,12,1.2,18,1.6c3.7,0.2,7.5,0,11.6,0c0,0,0,0,0,0C157.5,67.9,157.3,67.9,157.1,67.9z"/>
</g>
</svg>
