<?xml version="1.0" encoding="utf-8"?>
<!-- Generator: Adobe Illustrator 21.1.0, SVG Export Plug-In . SVG Version: 6.00 Build 0)  -->
<svg version="1.1" id="Layer_1" xmlns="http://www.w3.org/2000/svg" xmlns:xlink="http://www.w3.org/1999/xlink" x="0px" y="0px"
	 viewBox="0 0 288 288" style="enable-background:new 0 0 288 288;" xml:space="preserve">
<style type="text/css">
	.st0{fill:#6C6365;}
	.st1{fill:#B8771B;}
	.st2{fill:#FFA025;}
	.st3{fill:#D58922;}
	.st4{fill:#FFFFFF;}
</style>
<path class="st0" d="M208.3,114.5c0,0,8.8-9.7,32.9-9.7s28.3,27.4,28.3,39s-3,77-56,77c0-7.9,0-20.4,0-20.4s35.6,2.7,35.6-57.5
	c0-21.3-17.7-24.4-36.8-4C212.2,128.2,208.3,114.5,208.3,114.5z"/>
<g>
	<path class="st1" d="M170.5,186.1c-19.8,9.1-56,11.6-56.9-18.6c-0.5-15.9,1.8-30.4,3.8-42H70v109.3c0,15.6,8.8,28.3,17.4,28.3h109
		V125.5h-15.2C183.9,148.3,184.5,179.6,170.5,186.1z"/>
</g>
<g>
	<path class="st2" d="M170.5,186.1c-19.8,9.1-56,11.6-56.9-18.6c-0.5-15.9,1.8-30.4,3.8-42H85.9v109.3c0,15.6,8.8,28.3,17.4,28.3
		h109V125.5h-31.1C183.9,148.3,184.5,179.6,170.5,186.1z"/>
</g>
<path class="st0" d="M197,87.7v156.5c0,10.3-8.3,18.6-18.6,18.6H67.6c-10.3,0-18.6-8.3-18.6-18.6V87.7H28.3v159.1
	c0,19.8,16,35.8,35.8,35.8h117.8c19.8,0,35.8-16,35.8-35.8V87.7H197z"/>
<path class="st3" d="M221.4,40.8c-12.5-21-35.3-24.7-52.7-15.2c-5.5-4.6-17.7-7.6-31.1-3C124.5,7.1,96.8,5.2,73.7,23.5
	c-33.2-9.7-55.4,17.4-55.4,38.4s15.2,35.9,15.2,35.9c16.7,8.5,28.9,8.2,47.8-0.6c10.7,5.8,29.5,8.8,38.4,5.2c2.1,9.7-7,35-6.1,65.2
	c0.9,30.1,37.1,27.7,56.9,18.6s10.4-68.2,7-82.2c18.3,2.1,28.3-3,37.5-11.3C224.1,84.4,233.8,61.9,221.4,40.8z M179.3,83.5
	c-15.8-5.2-25,10.4-22.2,23.4c2.7,13.1,20.1,71.6-8.2,71.6s-12.8-42.9-10-57.5c2.7-14.6,3.3-39.3-15.5-39.3c-11.6,0-18.9,7-30.8-2.1
	S76.4,78.3,71,82c-5.5,3.7-32.6,6.4-32.6-20.1c0-11.9,15.2-25.3,25.6-20.1s16.4,6.4,25.3-4.6s30.1-9.7,35.9,0.6
	c5.8,10.4,13.4,6.7,18,4.3c4.6-2.4,14.6-0.9,18.9,3.7s11.9,2.4,17.7-3c5.8-5.5,27.4,0.6,27.4,18.6S195.2,88.7,179.3,83.5z"/>
<g>
	<path class="st4" d="M113.6,167.5c-0.2-5.9,0-11.7,0.5-17.1c-4.1,2.3-6.9,6.7-6.9,11.8v56.7c0,7.5,6,13.5,13.5,13.5
		c7.5,0,13.5-6,13.5-13.5v-27.5C122.9,189.2,114,182.2,113.6,167.5z"/>
</g>
<g>
	<path class="st4" d="M170.5,186.1c-6,2.8-13.6,4.9-21.2,5.7v27c0,7.5,6,13.5,13.5,13.5h0c7.5,0,13.5-6,13.5-13.5V181
		C174.7,183.3,172.8,185,170.5,186.1z"/>
</g>
</svg>
