<?xml version="1.0" encoding="utf-8"?>
<!-- Generator: Adobe Illustrator 21.1.0, SVG Export Plug-In . SVG Version: 6.00 Build 0)  -->
<svg version="1.1" id="Layer_1" xmlns="http://www.w3.org/2000/svg" xmlns:xlink="http://www.w3.org/1999/xlink" x="0px" y="0px"
	 viewBox="0 0 220 206" style="enable-background:new 0 0 220 206;" xml:space="preserve">
<style type="text/css">
	.st0{fill:#1C7CD6;}
	.st1{fill:#2A6097;}
</style>
<g>
	<path class="st0" d="M27.2,166.6c-1.7-0.4-3.3-0.7-4.9-1.2c-6.6-2.2-11.3-6.5-14.6-12.6c-2.5-4.7-3.6-9.6-2.6-14.9
		c1.4-7.6,7.3-12.9,15-13.6c0.5-0.1,1.1-0.1,1.7-0.1c-0.3-2.4-0.7-4.7-0.7-7c-0.2-8.4,3.7-16.4,11.8-19.5c5.8-2.2,11.3-1.2,16.4,1.8
		c1.9,1.1,3.6,2.6,5.4,4c1.2-1.8,2.3-3.7,3.7-5.5c7.3-9.4,19.8-9.9,27.4-1.9c3.5,3.7,5.5,8,6.3,12.9c0.1,0.8,0.3,1.7,0.5,2.6
		c2.1-0.4,4.1-1,6.1-1c8-0.1,15,5.7,16.7,13.6c2.1,9.8-0.5,18.2-7.6,25.3c-1.3,1.3-2.9,2.3-4.5,3.2c-1.1,0.6-1.2,1-0.7,2.1
		c3.1,5.9,4.8,12.2,4.6,19c-0.3,9.2-6.7,15.4-15.9,15c-4-0.2-8.1-0.5-12.1-1.1c-7.6-1.1-14.4,0.9-21,4.4c-3.6,1.9-7.3,3.6-11.2,4.7
		c-7.9,2.3-14.7-1.8-17.7-9.3c-2.5-6.3-3.1-12.9-2.1-19.6c0-0.3,0.1-0.6,0.1-0.8C27.2,166.9,27.2,166.7,27.2,166.6z M97.5,151.9
		c0.6-0.3,1.1-0.5,1.7-0.8c1.3-0.6,2.6-1.2,3.8-2c7.3-5.1,10.3-12.3,9.8-21c-0.3-4.5-2-8.5-5.7-11.4c-4.4-3.5-9.2-3.8-14.3-1.7
		c-1,0.4-2,0.7-3.1,1.1c-0.3-2.6-0.4-4.9-0.8-7.1c-1-5.1-3.2-9.5-7.5-12.6C76.2,92.6,69,92.8,64,96.7c-3.1,2.4-5.2,5.4-6.7,9
		c-0.5,1.1-1,2.3-1.6,3.5c-0.7-0.7-1.2-1.1-1.6-1.7c-3-3.2-6.4-5.9-10.7-7.3c-6.7-2.1-14.5,1.4-17.4,7.7c-2.2,4.9-2.3,9.9-1,15
		c0.4,1.4,0.7,2.8,1.2,4.4c-1.1,0-1.9,0-2.8,0c-1.6,0.1-3.3,0-4.8,0.3c-6.5,1.4-10.7,6.8-10.7,13.8c0,4.8,1.7,9,4.5,12.8
		c4,5.3,9.1,8.6,15.9,9.1c0.9,0.1,1.8,0.2,2.8,0.3c-0.3,2.1-0.6,4.1-0.8,6c-0.7,5.7,0.1,11.3,2.2,16.7c2.4,6.3,7.8,9.1,14.3,7.2
		c3.2-0.9,6.4-2.4,9.4-4c7.6-4.2,15.5-6.4,24.3-5.1c3.6,0.6,7.2,0.9,10.9,1.1c2.7,0.1,5.3-0.4,7.7-1.8c3.6-2.2,5.1-5.7,5.2-9.7
		c0.2-5.9-1-11.6-3.7-17C99.4,155.4,98.5,153.7,97.5,151.9z"/>
	<path class="st0" d="M98.7,168.2c0.5,4.4,0.4,4.3,0.4,6.2c0,4.4-2.1,6.6-6.4,6.5c-3.5-0.1-7-0.6-10.4-1c-5.6-0.7-11.3-1.2-16.8,0.5
		c-3.8,1.2-7.4,2.9-11,4.5c-3,1.3-5.8,3-8.8,4.2c-4.4,1.8-7.2,0.4-8.8-4.1c-2.8-7.9-2.4-15.8,0.2-23.6c2.8-8.1,7.5-14.9,13.9-20.4
		c6-5.1,12.6-6.2,19.9-3.3c11,4.3,19.5,11.5,24.8,22.5C97.2,162.8,98.2,163.7,98.7,168.2z"/>
	<path class="st0" d="M54.7,119.8c0.7,4.1,0.7,7.8-1.1,11.3c-2.6,5-7.7,6.8-12.9,4.5c-6.3-2.8-9.8-7.9-11.5-14.3
		c-1.2-4.2-1.1-8.4,0.9-12.3c2.5-4.8,7.8-6.6,12.7-4.5C49.6,107.6,53.1,113.1,54.7,119.8z"/>
	<path class="st0" d="M59.7,119c-0.5-6.3,0.7-12,4.6-16.9c2.1-2.6,4.7-4.5,8.1-4.7c4.7-0.2,8,2.2,10,6.1c4.1,7.9,3.4,15.7-1.3,23.1
		c-2,3.1-4.9,5.4-8.8,5.6c-4.9,0.3-8.1-2.5-10.2-6.5C60.9,123.5,60.4,121.2,59.7,119z"/>
	<path class="st0" d="M38.1,146.4c0.4,4.8,0.2,5-0.4,6.9c-1.6,4.9-6.1,6.9-11.7,5.6c-7.5-1.8-14.2-10.3-14.1-18.1
		c0-6.2,4.9-10.3,11-9.2C30.3,132.9,37.7,141.6,38.1,146.4z"/>
	<path class="st0" d="M108.6,126.1c1.3,6.9-2.5,16.4-9.2,20c-5.1,2.8-10.9,0.9-13.2-4.5c-3.2-7.7,0.4-18.6,7.6-22.9
		c6.2-3.8,12.9-1,14.6,6.1C108.5,125.2,108.5,125.6,108.6,126.1z"/>
	<path class="st1" d="M33.2,117.7c-1.1-4-1.4-8-0.5-11.9c-1,0.8-1.9,1.9-2.6,3.2c-2,4-2.1,8.1-0.9,12.3c1.8,6.4,5.3,11.5,11.5,14.3
		c2.3,1,4.5,1.2,6.5,0.7C39.8,132.4,35.5,125.8,33.2,117.7z"/>
	<path class="st1" d="M67.3,129.8c-1.5-2.9-2.2-6.2-3.3-9.2c-0.7-8.3,0.8-15.9,5.6-22.6c-2.1,0.8-3.9,2.2-5.4,4.1
		c-3.9,5-5.1,10.7-4.6,16.9c0.8,2.2,1.3,4.6,2.4,6.6c1.5,2.8,3.6,5,6.4,6C68,131,67.7,130.4,67.3,129.8z"/>
	<path class="st1" d="M13.9,135.2c0-0.2,0-0.3,0-0.5c-1.3,1.6-2,3.7-2,6.1c-0.1,7.8,6.6,16.3,14.1,18.1c2,0.5,3.9,0.5,5.5,0.2
		C22,156,13.8,145.2,13.9,135.2z"/>
	<path class="st1" d="M100.4,118.5c0.6-0.4,1.3-0.7,1.9-1c-2.6-0.9-5.6-0.6-8.5,1.2c-7.2,4.3-10.7,15.2-7.6,22.9
		c0.7,1.8,1.9,3.2,3.3,4.2C87.2,135.9,91.8,123.7,100.4,118.5z"/>
	<path class="st1" d="M42.3,156.1c0-1.9,0.1-3.7,0.2-5.5c-2.2,3.3-4,6.9-5.3,10.7c-2.7,7.8-3.1,15.7-0.2,23.6
		c1.6,4.6,4.4,5.9,8.8,4.1c1.1-0.5,2.2-1,3.3-1.5C44.8,178.7,42.3,167.8,42.3,156.1z"/>
</g>
<g>
	<path class="st0" d="M117.1,67.3c-1.4-1-2.8-1.9-4.1-3c-5.2-4.5-7.9-10.4-8.6-17.2c-0.5-5.3,0.4-10.3,3.4-14.8
		c4.3-6.4,11.7-9.1,19.1-6.8c0.5,0.2,1,0.3,1.6,0.5c0.7-2.3,1.2-4.6,2-6.7c3.1-7.9,9.7-13.7,18.4-13.4c6.2,0.2,10.9,3.2,14.4,8.1
		c1.3,1.8,2.3,3.8,3.5,5.8c1.8-1.2,3.6-2.5,5.5-3.6c10.4-5.8,22.1-1.5,26,8.8c1.8,4.7,1.9,9.5,0.8,14.4c-0.2,0.8-0.4,1.7-0.6,2.6
		c2.1,0.5,4.2,0.7,6,1.4c7.4,3,11.6,11.1,10.1,18.9c-1.9,9.8-7.6,16.6-16.8,20.3c-1.7,0.7-3.6,1-5.4,1.2c-1.2,0.1-1.5,0.5-1.4,1.7
		c0.6,6.7-0.3,13.1-3.1,19.3c-3.8,8.3-12.2,11.6-20.5,7.7c-3.7-1.7-7.3-3.6-10.7-5.7c-6.6-4-13.6-4.7-21-4c-4,0.4-8.1,0.5-12.1,0
		c-8.2-1-12.9-7.3-12.7-15.5c0.1-6.8,2.1-13.1,5.6-18.9c0.1-0.2,0.3-0.5,0.4-0.7C117,67.5,117,67.4,117.1,67.3z M187.6,80.9
		c0.7,0,1.3-0.1,1.8-0.1c1.4-0.1,2.9,0,4.3-0.3c8.7-1.9,14.3-7.4,17.2-15.6c1.5-4.3,1.4-8.7-0.8-12.7c-2.7-4.9-7.1-7-12.6-7.1
		c-1.1,0-2.1-0.1-3.3-0.1c0.7-2.5,1.5-4.6,2-6.9c1.1-5.1,0.8-10-2-14.5c-3.3-5.5-10-8.1-16.1-6.4c-3.8,1-6.9,3-9.7,5.7
		c-0.9,0.9-1.8,1.7-2.9,2.6c-0.3-0.9-0.6-1.5-0.9-2.2c-1.5-4.2-3.6-7.9-7.1-10.9c-5.3-4.5-13.9-4.3-19,0.4
		c-3.9,3.7-5.9,8.2-6.7,13.4c-0.2,1.4-0.4,2.9-0.6,4.5c-1-0.4-1.8-0.8-2.6-1.1c-1.5-0.6-3-1.3-4.6-1.6c-6.5-1.2-12.5,2.2-15.2,8.6
		c-1.9,4.4-2,8.9-0.8,13.5c1.6,6.5,5.1,11.5,11.1,14.5c0.8,0.4,1.6,0.9,2.5,1.3c-1.1,1.8-2.1,3.5-3.1,5.2c-2.8,5-4.3,10.5-4.5,16.2
		c-0.2,6.8,3.6,11.4,10.4,12.2c3.3,0.4,6.8,0.3,10.2-0.1c8.6-0.9,16.8,0.1,24.4,4.7c3.1,1.9,6.3,3.6,9.6,5.2
		c2.4,1.2,5.1,1.7,7.8,1.3c4.2-0.6,6.9-3.3,8.6-6.9c2.5-5.4,3.6-11.1,3.2-17.1C188,84.9,187.8,83,187.6,80.9z"/>
	<path class="st0" d="M182.4,96.4c-1.3,4.3-1.3,4.1-2.1,5.8c-1.7,4-4.5,5.3-8.4,3.5c-3.2-1.4-6.2-3.2-9.2-5c-4.9-2.8-10-5.5-15.7-6
		c-3.9-0.4-7.9-0.2-11.9-0.1c-3.2,0.1-6.5,0.5-9.7,0.5c-4.7,0-6.8-2.4-6.5-7.2c0.5-8.4,3.9-15.5,9.4-21.7
		c5.7-6.4,12.7-10.9,20.7-13.5c7.5-2.4,14.1-0.8,19.7,4.7c8.4,8.2,13.5,18.2,14.2,30.3C183.1,90.8,183.7,92.2,182.4,96.4z"/>
	<path class="st0" d="M160.6,34.8c-0.9,4.1-2.3,7.5-5.4,10c-4.3,3.6-9.7,3.3-13.6-0.8c-4.7-5-6-11-5.1-17.6c0.6-4.3,2.2-8.1,5.6-11
		c4.1-3.4,9.7-3.1,13.4,0.8C160.6,21.5,161.7,28,160.6,34.8z"/>
	<path class="st0" d="M165.5,36c2-6,5.3-10.8,10.8-13.8c2.9-1.6,6-2.3,9.3-1.1c4.4,1.6,6.5,5.1,6.8,9.5c0.7,8.9-2.9,15.8-10.1,20.8
		c-3.1,2.1-6.6,3.1-10.3,1.7c-4.6-1.7-6.5-5.4-6.9-10C164.9,40.7,165.3,38.3,165.5,36z"/>
	<path class="st0" d="M135,52.9c-1.5,4.6-1.7,4.7-3,6.2c-3.4,3.9-8.3,4-13,0.6c-6.2-4.6-9.1-15-6-22.1c2.5-5.7,8.5-7.6,13.7-4.2
		C133,37.4,136.4,48.3,135,52.9z"/>
	<path class="st0" d="M207.9,61.5c-1.5,6.9-8.7,14.2-16.2,14.9c-5.8,0.6-10.4-3.4-10.4-9.3c0.1-8.4,7.6-16.9,15.8-18.2
		c7.2-1.1,12.2,4.1,11,11.3C208.1,60.6,207.9,61,207.9,61.5z"/>
	<path class="st1" d="M141.6,24.5c0.5-4.1,1.8-7.9,4.1-11.2c-1.3,0.4-2.5,1-3.6,2c-3.4,2.9-5.1,6.7-5.6,11
		c-0.8,6.6,0.4,12.6,5.1,17.6c1.7,1.8,3.7,2.8,5.7,3.2C141.9,40.6,140.5,32.9,141.6,24.5z"/>
	<path class="st1" d="M168.4,48.9c-0.3-3.2,0.3-6.5,0.5-9.8c2.6-7.9,6.9-14.4,13.9-18.7c-2.3-0.1-4.5,0.6-6.5,1.7
		c-5.5,3.1-8.8,7.9-10.8,13.8c-0.1,2.3-0.6,4.7-0.4,7c0.3,3.2,1.3,6,3.5,8C168.5,50.3,168.4,49.6,168.4,48.9z"/>
	<path class="st1" d="M117,33.2c0.1-0.2,0.1-0.3,0.2-0.5c-1.8,1-3.3,2.6-4.2,4.9c-3.1,7.2-0.3,17.5,6,22.1c1.7,1.2,3.4,2,5,2.3
		C116.4,55.5,113.1,42.4,117,33.2z"/>
	<path class="st1" d="M203.2,51.3c0.7-0.1,1.5-0.2,2.1-0.2c-2-1.8-4.9-2.7-8.3-2.2c-8.3,1.2-15.8,9.8-15.8,18.2c0,2,0.5,3.7,1.4,5.1
		C184.3,62.2,193.3,52.7,203.2,51.3z"/>
	<path class="st1" d="M135.1,63.4c0.7-1.7,1.5-3.4,2.3-5c-3.3,2.2-6.3,4.8-9,7.9c-5.5,6.1-8.9,13.3-9.4,21.7
		c-0.3,4.8,1.8,7.2,6.5,7.2c1.2,0,2.4-0.1,3.7-0.1C128.7,85.3,130.5,74.3,135.1,63.4z"/>
</g>
</svg>
